<?xml version="1.0" encoding="UTF-8"?>
<svg viewBox="0 0 57.230545 62.837891" xmlns="http://www.w3.org/2000/svg" xmlns:xlink="http://www.w3.org/1999/xlink">
 <defs>
  <linearGradient id="a">
   <stop stop-color="#a18930" offset="0"/>
   <stop stop-color="#e3c565" offset=".66667"/>
   <stop stop-color="#fffbcc" offset="1"/>
  </linearGradient>
  <linearGradient id="c" x1="32.232" x2="41.601" y1="52.825" y2="65.947" gradientUnits="userSpaceOnUse" xlink:href="#a" spreadMethod="reflect"/>
  <linearGradient id="b" x1="44.906" x2="51.25" y1="38.795" y2="47.564" gradientUnits="userSpaceOnUse" xlink:href="#a" spreadMethod="reflect"/>
 </defs>
 <g transform="translate(-351.47 -23.465)">
  <path d="m407.7 79.396c-0.63287 0.63282-2.6251 1.5176-5.9766 2.6543-2.5665 0.87891-4.7051 1.5293-6.416 1.9512-3.504 0.86719-7.2481 1.3008-11.232 1.3008-5.7774 0-11.063-1.2891-15.855-3.8672-4.9453-2.6719-8.8301-6.4512-11.654-11.338-2.7422-4.7109-4.1074-9.8437-4.0957-15.398 0-8.2851 2.9297-15.393 8.7891-21.322 2.7539-2.789 5.9707-4.9628 9.6504-6.5215 3.7383-1.582 7.6758-2.3788 11.812-2.3906 9.1406 6e-5 16.869 2.8067 23.186 8.4199l-8.8594 11.092c-0.97271-1.1484-2.3086-2.2382-4.0078-3.2695-1.1836-0.70308-2.6602-1.3183-4.4297-1.8457-1.8985-0.56245-3.9141-0.82613-6.0469-0.79102-2.5547 0.04692-5.0215 0.87309-7.4004 2.4785-2.332 1.5704-4.1836 3.5977-5.5547 6.082-1.3946 2.5196-2.0918 5.1621-2.0918 7.9277-2e-5 6.7617 2.7422 11.689 8.2266 14.783 2.5898 1.4766 5.5136 2.2149 8.7715 2.2148 0.71481 1e-5 2.1621-0.18163 4.3418-0.54492 2.3671-0.38671 3.6796-0.70897 3.9375-0.9668v-8.6484h-14.906l4.2539-11.953h25.559v29.953z" fill="url(#c)" stroke="url(#b)" stroke-width="2"/>
 </g>
</svg>
