<?xml version="1.0" encoding="UTF-8"?>
<svg width="156.72" height="233.49" version="1.1" viewBox="0 0 156.72211 233.4875" xmlns="http://www.w3.org/2000/svg" xmlns:xlink="http://www.w3.org/1999/xlink">
 <defs>
  <linearGradient id="as" x1="1343" x2="1331" y1="599.22" y2="583.82" gradientTransform="matrix(.51555 0 0 .51555 -358.57 -174.36)" gradientUnits="userSpaceOnUse">
   <stop stop-color="#f00" offset="0"/>
   <stop stop-color="#800000" offset="1"/>
  </linearGradient>
  <linearGradient id="av" x1="294.23" x2="297.63" y1="170.79" y2="181.04" gradientTransform="translate(-1.0102 .75761)" gradientUnits="userSpaceOnUse" xlink:href="#ae"/>
  <linearGradient id="ae">
   <stop stop-color="#888" offset="0"/>
   <stop stop-color="#dedede" offset="1"/>
  </linearGradient>
  <filter id="ad" x="-.067028" y="-.14868" width="1.1341" height="1.2974" color-interpolation-filters="sRGB">
   <feGaussianBlur stdDeviation="1.0622807"/>
  </filter>
  <linearGradient id="aw" x1="294.23" x2="297.63" y1="170.79" y2="181.04" gradientTransform="translate(4.7041 30.222)" gradientUnits="userSpaceOnUse" xlink:href="#ae"/>
  <linearGradient id="ax" x1="294.23" x2="297.63" y1="170.79" y2="181.04" gradientTransform="translate(41.575 17.595)" gradientUnits="userSpaceOnUse" xlink:href="#ae"/>
  <linearGradient id="ay" x1="294.23" x2="297.63" y1="170.79" y2="181.04" gradientTransform="translate(-7.6217 18.756)" gradientUnits="userSpaceOnUse" xlink:href="#ae"/>
  <linearGradient id="az" x1="294.23" x2="297.63" y1="170.79" y2="181.04" gradientTransform="translate(1.4211 103.46)" gradientUnits="userSpaceOnUse" xlink:href="#ae"/>
  <linearGradient id="au" x1="316.42" x2="326.35" y1="142.64" y2="155.5" gradientUnits="userSpaceOnUse">
   <stop stop-color="#c2c2c2" offset="0"/>
   <stop stop-color="#ededed" offset="1"/>
  </linearGradient>
  <linearGradient id="at" x1="1237.2" x2="1312.1" y1="574.93" y2="563.67" gradientTransform="matrix(.51555 0 0 .51555 -358.57 -174.36)" gradientUnits="userSpaceOnUse">
   <stop stop-color="#7f0000" offset="0"/>
   <stop stop-color="#f00" offset=".3729"/>
   <stop stop-color="#f00" offset=".61295"/>
   <stop stop-color="#800000" offset="1"/>
  </linearGradient>
  <clipPath id="be">
   <path d="m318.36 136.44 0.12775-0.21398 1.1216-1.2444 1.8415-0.68639 3.7723-0.49107 0.0614 0.0781 0.54687 0.93192-0.16183 0.53571-1.25 5.3292 16.25-2.3214 3.9286-15.536-20.714-34.821-50.536 6.0714-10.536 42.857 8.0357 24.107 49.821-8.5714z" fill="none" stroke="#000" stroke-width="1px"/>
  </clipPath>
  <filter id="ah">
   <feGaussianBlur stdDeviation="0.526641"/>
  </filter>
  <filter id="bf" x="-.069457" y="-.15538" width="1.1389" height="1.3108">
   <feGaussianBlur stdDeviation="1.2650547"/>
  </filter>
  <filter id="ai" x="-.052558" y="-.19361" width="1.1051" height="1.3872">
   <feGaussianBlur stdDeviation="0.72610129"/>
  </filter>
  <filter id="aj">
   <feGaussianBlur stdDeviation="0.72610129"/>
  </filter>
  <filter id="al" x="-.11819" y="-.12187" width="1.2364" height="1.2437">
   <feGaussianBlur stdDeviation="0.63679176"/>
  </filter>
  <filter id="ag">
   <feGaussianBlur stdDeviation="1.4761757"/>
  </filter>
  <filter id="am" x="-.033357" y="-.29812" width="1.0667" height="1.5962">
   <feGaussianBlur stdDeviation="0.74965667"/>
  </filter>
  <filter id="ao" x="-.052438" y="-.22148" width="1.1049" height="1.443">
   <feGaussianBlur stdDeviation="0.52198875"/>
  </filter>
  <filter id="an" x="-.071355" y="-.70331" width="1.1427" height="2.4066">
   <feGaussianBlur stdDeviation="0.52198875"/>
  </filter>
  <filter id="ak" x="-.101" y="-.25074" width="1.202" height="1.5015">
   <feGaussianBlur stdDeviation="0.98270022"/>
  </filter>
  <linearGradient id="bc" x1="269.66" x2="269.86" y1="222.09" y2="214.77" gradientTransform="translate(47.321 2.5)" gradientUnits="userSpaceOnUse" xlink:href="#af" spreadMethod="reflect"/>
  <linearGradient id="af">
   <stop stop-color="#fff" offset="0"/>
   <stop stop-color="#ccc" offset="1"/>
  </linearGradient>
  <linearGradient id="bb" x1="295.2" x2="300.75" y1="254.41" y2="253.7" gradientTransform="translate(47.321 2.5)" gradientUnits="userSpaceOnUse" xlink:href="#af" spreadMethod="reflect"/>
  <clipPath id="bd">
   <path d="m329.6 209.43c0.17857-0.71428 13.393-9.1071 13.393-9.1071l23.75 86.25s-25.893 11.964-26.607 10.536c-0.71429-1.4286-10.536-87.679-10.536-87.679z" fill="none" stroke="#000" stroke-width="1px"/>
  </clipPath>
  <linearGradient id="ba" x1="295.2" x2="300.75" y1="254.41" y2="253.7" gradientUnits="userSpaceOnUse" xlink:href="#af" spreadMethod="reflect"/>
  <linearGradient id="ar" x1="1788.1" x2="1835.6" y1="704.37" y2="695.62" gradientTransform="matrix(2.5111,0,0,2.5111,-4464.8,-1730.2)" gradientUnits="userSpaceOnUse">
   <stop stop-color="#dccb94" offset="0"/>
   <stop stop-color="#c4a95a" offset="1"/>
  </linearGradient>
  <linearGradient id="aq" x1="1834" x2="1828.8" y1="754.31" y2="707.71" gradientTransform="matrix(2.5111,0,0,2.5111,-4464.8,-1730.2)" gradientUnits="userSpaceOnUse">
   <stop stop-color="#a28650" offset="0"/>
   <stop stop-color="#dac491" offset="1"/>
  </linearGradient>
  <linearGradient id="ap" x1="1779.5" x2="1800.9" y1="721.07" y2="722.69" gradientTransform="matrix(2.5111,0,0,2.5111,-4465.6,-1731)" gradientUnits="userSpaceOnUse">
   <stop stop-color="#bb9652" offset="0"/>
   <stop stop-color="#d4bf8a" offset="1"/>
  </linearGradient>
 </defs>
 <g transform="translate(-727.35 -218.48)">
  <g transform="translate(488.79 110.44)">
   <g transform="matrix(-.21691 0 0 .21691 550.91 294.28)">
    <path d="m857.39 182.9s12.627 6.0609 23.234 5.0508c10.607-1.0102 19.698-3.5355 21.213-15.152 1.5152-11.617 6.0609-33.335 3.5355-44.447s-1.5152-37.376-16.668-36.871c-15.152 0.50507-27.779 6.0609-34.345 23.739-6.566 17.678-13.132 17.678-10.102 34.85 3.0305 17.173 13.132 32.83 13.132 32.83z" fill-rule="evenodd" stroke="#000" stroke-width="1px"/>
    <path d="m876.07 124.45c-3.388-11.298-9.036-10.166-12.99 0-3.39 19.77-4.521 50.272 6.213 53.66 0 0 9.602-5.084 9.036-14.686-3.389 5.647-7.906 15.25-10.167 2.823l10.167-6.778-4.519-5.647-7.908 0.564s-2.257-9.602-1.128-17.51c1.128-7.908 4.519 2.824 4.519 2.824v9.602l3.39-1.129s-3.842-1.996 5.646-6.214c5.084-2.259-6.212-2.259-6.212-2.259s-0.565-2.26 6.212-2.824l-1.693-3.955-10.733-6.777c0 0.03 1.69-12.4 10.16-1.67z" fill="#807b88"/>
   </g>
   <g transform="translate(-11.786 -.35714)">
    <path d="m332.67 126.01c-1.0311 0.0361-2.1653 0.31448-3.4026 0.90736-2.8871 1.3559-6.2381 4.2584-9.7954 8.2126 6.8052-2.1034 12.27-1.3971 18.869-2.5623 2.0622-0.36603 1.5466-1.7116 1.1858-2.3818-0.15467-0.30417-0.30933-0.59803-0.46399-0.87127 0-0.0155-0.0516-0.0309-0.0516-0.0464-0.72176-0.9383-1.9075-2.3457-4.5884-3.0624-0.5671-0.1495-1.1342-0.21137-1.7529-0.1959z" fill="url(#as)" fill-rule="evenodd"/>
    <path d="m291.95 168.26c0 0.63135 2.7779 2.5254-0.50508 4.5457-3.283 2.0203-13.132 1.5152-15.531 3.7881-2.3991 2.2728-16.668 11.112-13.511 16.668 3.1567 5.5558 15.91 8.0812 15.91 8.0812s-3.1567 24.37-6.566 34.85-4.4194 28.663-6.0609 29.926c-1.6415 1.2627-7.4499-1.5152-11.238 3.5355-3.7881 5.0508-5.6821 27.905-0.12627 30.683s9.9752 3.5355 12.627 0.63134c2.6516-2.9042 1.2627-19.824 1.2627-19.824s2.2728 0.88388 5.5558-2.5254c3.283-3.4093 15.531-34.471 18.688-34.471 3.1567 0 12.879 43.184 9.9752 57.705s26.517 18.94 27.527 16.415 4.1669-10.985-1.5152-14.395c-5.6821-3.4093-6.3134 0.88389-9.2176-4.9245s-6.0609-57.705-6.0609-70.458 1.0102-32.577 1.894-32.577 11.743 11.112 13.637 11.743c1.894 0.63135 9.4702-0.3788 9.4702-0.3788s-1.389 2.9042 1.894 4.4194 6.566 3.5355 10.607-1.389c4.0406-4.9245 4.2931-9.3439-0.37881-12.501-4.672-3.1567-3.5355-3.283-6.6923-3.1567s-8.0812 1.0102-9.4702 0.25254c-1.389-0.75762-11.996-13.132-15.279-14.395-3.283-1.2627-9.849-3.1567-10.354-6.8185-0.50508-3.6618-3.4093-6.9448-3.4093-6.9448z" fill="#ededed" fill-rule="evenodd" stroke="#000" stroke-width="1px"/>
    <path d="m291.8 170.9-0.71429 2.5-9.4643 2.1428-6.25 0.89286-5.7143 5.1786s3.0357 4.8214 12.679 4.6429 18.214-0.17857 19.464-1.4286 1.4286-5.5357 2.3214-6.6071c0.89285-1.0714 3.5714-2.8572 3.5714-2.8572l-1.6071-6.25z" fill="url(#av)" fill-rule="evenodd" filter="url(#ad)" opacity=".719"/>
    <path d="m284.95 183.09s-1.3105 2.9737-1.5784 3.5987c-0.56822 1.3258-2.0834 1.8309-2.0834 1.8309" fill="none" stroke="#000" stroke-width="1px"/>
    <path d="m298.41 206.43-7.6786 5.7143-4.6428-3.3929-7.5-6.7857c-1.0714 3.0357 3.3936 21.252-2.5 11.429 0 0 1.0714 6.4286 10.714 6.25 0 0 10.772-3.4784 11.607-13.214z" fill="url(#aw)" fill-rule="evenodd" filter="url(#ad)" opacity=".413"/>
    <path d="m275.52 187.21s16.289 3.7881 20.582 6.1872 6.9448 8.0812 2.7779 12.627c-4.1669 4.5457-7.955 9.0914-12.753 3.4093-4.7982-5.6821-1.6415-5.5558-7.955-8.0812" fill="none" stroke="#000" stroke-width="1px"/>
    <path d="m327.6 199.52-4.6428-3.3929-7.5-6.7857c-1.0714 3.0357 8.3936 17.681 2.5 7.8571 0 0 1.875 9.0179 11.518 8.8393 5.0103-7.6992-0.0198-3.1995-1.875-6.5179z" fill="url(#ax)" fill-rule="evenodd" filter="url(#ad)" opacity=".272"/>
    <path transform="matrix(.96047 -.27837 .27837 .96047 -42.637 79.754)" d="m278.41 200.68-4.6428-3.3929-7.5-6.7857c-1.0714 3.0357 8.3936 17.681 2.5 7.8571 0 0 1.875 9.0179 11.518 8.8393 5.0103-7.6992-0.0198-3.1995-1.875-6.5179z" fill="url(#ay)" fill-rule="evenodd" filter="url(#ad)" opacity=".272"/>
    <path transform="matrix(-.13553 1.0413 -.69376 -.20343 503.87 44.259)" d="m287.45 285.39-4.6428-3.3929-7.5-6.7857c-1.0714 3.0357 8.3936 17.681 2.5 7.8571 0 0 1.875 9.0179 11.518 8.8393 5.0103-7.6992-0.0198-3.1995-1.875-6.5179z" fill="url(#az)" fill-rule="evenodd" filter="url(#ad)" opacity=".51"/>
    <path d="m291.95 168.26c0 0.63135 2.7779 2.5254-0.50508 4.5457-3.283 2.0203-13.132 1.5152-15.531 3.7881-2.3991 2.2728-16.668 11.112-13.511 16.668 3.1567 5.5558 15.91 8.0812 15.91 8.0812s-3.1567 24.37-6.566 34.85-4.4194 28.663-6.0609 29.926c-1.6415 1.2627-7.4499-1.5152-11.238 3.5355-3.7881 5.0508-5.6821 27.905-0.12627 30.683s9.9752 3.5355 12.627 0.63134c2.6516-2.9042 1.2627-19.824 1.2627-19.824s2.2728 0.88388 5.5558-2.5254c3.283-3.4093 15.531-34.471 18.688-34.471 3.1567 0 12.879 43.184 9.9752 57.705s26.517 18.94 27.527 16.415 4.1669-10.985-1.5152-14.395c-5.6821-3.4093-6.3134 0.88389-9.2176-4.9245s-6.0609-57.705-6.0609-70.458 1.0102-32.577 1.894-32.577 11.743 11.112 13.637 11.743c1.894 0.63135 9.4702-0.3788 9.4702-0.3788s-1.389 2.9042 1.894 4.4194 6.566 3.5355 10.607-1.389c4.0406-4.9245 4.2931-9.3439-0.37881-12.501-4.672-3.1567-3.5355-3.283-6.6923-3.1567s-8.0812 1.0102-9.4702 0.25254c-1.389-0.75762-11.996-13.132-15.279-14.395-3.283-1.2627-9.849-3.1567-10.354-6.8185-0.50508-3.6618-3.4093-6.9448-3.4093-6.9448z" fill="none" stroke="#000" stroke-width="1px"/>
    <circle cx="303.71" cy="146.93" r="25.714" fill="url(#au)" stroke="#000" stroke-linecap="round" stroke-linejoin="round"/>
    <g fill-rule="evenodd">
     <path d="m301.48 109.16c-5.5679 0.0464-11.136 0.91252-16.343 3.284-2.5777 1.1806-2.1653 1.6858-1.392 1.9024 2.1653 0.57226 6.9083 1.0517 9.5892 1.129h0.10311c0 0.13404-0.10311 0.2423-0.25777 0.2423-2.8355-0.0361-7.5785-0.39697-9.95-0.91767-0.10311-0.0309-0.25778-0.067-0.41244-0.11342 0 0.0258 0 0.0464-0.0516 0.0773-0.1031 0.232-0.20621 0.48462-0.36088 0.75786 0 0.0928-0.0516 0.19075-0.10311 0.2887-0.0515 0.16498-0.15466 0.3248-0.20622 0.50008-0.15466 0.39697-0.30932 0.81972-0.46399 1.2579-0.30932 0.72177-0.5671 1.4951-0.82487 2.289-0.30933 0.79394-0.5671 1.6085-0.82487 2.4179-0.0516 0.17529-0.10311 0.35057-0.20622 0.53101-0.15467 0.61866-0.36089 1.2322-0.51555 1.8199-0.25777 0.75786-0.46399 1.4899-0.67021 2.1395-0.36088 1.2992-0.67021 2.3457-0.82487 2.8716-0.0516 0.15467-0.0516 0.30417-0.10311 0.44853 0 0.11857 0 0.23199-0.0516 0.34026v0.75789c0 0.12373 0.0516 0.24231 0.0516 0.35057v0.0361c0.0516 0.067 0.0516 0.12889 0.0516 0.19075 0.0516 0.0773 0.10311 0.14436 0.10311 0.21138v0.0155c0.0516 0.067 0.10311 0.13404 0.15466 0.19075v0.0155c0.0516 0.0619 0.10311 0.10827 0.15467 0.16498 0 0.0155 0 0.0309 0.0515 0.0464 0 0.0361 0.0516 0.0825 0.10311 0.11342v0.0309c0.0516 0.0155 0.0516 0.0361 0.10311 0.0515 0.0516 0.0516 0.15467 0.098 0.20622 0.14436 0.10311 0.0464 0.20622 0.0928 0.25777 0.12888 0.0516 5e-3 0.0516 0.0103 0.0516 0.0155 0.15466 0.0515 0.25777 0.0825 0.36088 0.11342 2.1653 0.57226 10.259 4.0264 12.94 4.4131 0.25777 0.0361 0.51555 0.0773 0.82488 0.11342l0.15466 0.0155c0.30933 0.0309 0.5671 0.0722 0.87643 0.098 0.15466 0.0155 0.36088 0.0206 0.51554 0.0309l0.30933 0.0155c0.10311 5e-3 0.20622-5e-3 0.30933 0 0.0516 5e-3 0.15466 0.0155 0.25777 0.0155 0.25778 5e-3 0.51555-5e-3 0.77332-0.0155 0.25778-5e-3 0.46399-0.0155 0.72177-0.0309 0.30932-0.0258 0.61865-0.0515 0.87643-0.0979 0.0515-5e-3 0.0515-0.0103 0.1031-0.0155 0.15467-0.0309 0.36089-0.0567 0.51555-0.0979 0.30933-0.067 0.61866-0.16498 0.92798-0.27324 0.15467-0.0516 0.30933-0.11342 0.464-0.17529 0.25777-0.0979 0.46399-0.20106 0.67021-0.32479 0.0515-0.0206 0.0515-0.0412 0.10311-0.0619 0.1031-0.0412 0.15466-0.0876 0.20621-0.12888 0.10311-0.067 0.20622-0.13405 0.30933-0.21138 1.0826-0.83518 2.0622-1.593 2.9902-2.289 0-0.0103 0-0.0155 0.0516-0.0309 0.87643-0.68567 1.7529-1.3043 2.5262-1.8663 0-0.0206 0.0516-0.0309 0.0516-0.0516 0.77331-0.54648 1.4951-1.0362 2.1137-1.4796 0.67021-0.46399 1.2889-0.87642 1.856-1.2425l0.15467-0.0773c0.51554-0.34026 0.97953-0.61866 1.4435-0.88674 0.36088-0.21653 0.72176-0.39182 1.0311-0.5671 0.15466-0.0825 0.30933-0.18045 0.46399-0.25778 0.36088-0.19075 0.67021-0.36088 1.0311-0.51554 0-0.0206 0.0516-0.0413 0.10311-0.0619 0.30933-0.14951 0.61866-0.26808 0.92798-0.38666 0-0.0258 0.0516-0.0412 0.10311-0.067 0.41244-0.20106 0.77332-0.39697 1.1858-0.59288 0-5e-3 0-0.0103 0.0516-0.0155 0.41244-0.21653 0.82488-0.42791 1.2373-0.62897 0.0515-0.0103 0.0515-0.0258 0.1031-0.0361 0.41244-0.19591 0.82488-0.37635 1.2373-0.56194 0.0515-5e-3 0.0515-0.0103 0.0515-0.0155 0.46399-0.19075 0.87643-0.37119 1.3404-0.54648-0.10311-0.19591-0.20622-0.45884-0.46399-0.84034-0.10311-0.19591-0.25777-0.51555-0.41244-0.90221-0.15466-0.30932-0.36088-0.71145-0.51554-1.1084-0.0516-0.0928-0.10311-0.22684-0.15467-0.3248-0.46399-1.0878-1.0311-2.4128-1.6498-3.7532 0-0.0464 0-0.0876-0.0516-0.12889-0.30933-0.73723-0.61866-1.4693-0.97954-2.1756-0.0516-0.14436-0.10311-0.2784-0.15466-0.4176-0.0516-0.11857-0.10311-0.22168-0.15467-0.34026-0.20621-0.38666-0.41243-0.76301-0.5671-1.1084-0.0515-0.0516-0.0515-0.0979-0.0515-0.14951-0.20622-0.40213-0.41244-0.74754-0.61866-1.0775 0-0.0825-0.0515-0.14951-0.10311-0.22684-0.36088 0.23715-0.82487 0.41759-1.3404 0.59803-3.351 1.2012-7.2692 2.222-11.29 2.8974-0.10311-5e-3 -0.20622-0.0825-0.20622-0.19075 3.9182-0.70114 7.6816-1.7941 10.981-3.0933 1.392-0.5671 2.32-1.2992 0.92798-1.5157-4.1759-0.65475-8.5065-1.1136-12.889-1.0775z" fill="url(#at)"/>
     <path d="m340.3 129.49c-0.25778-6.7846-7.1661-7.2589-10.981-6.6248-13.61 2.2632-27.376 13.641-33.047 19.307-0.61866 0.58256-1.7013 1.5673 1.0311 1.6394 4.743 0.12373 13.146 0.2784 17.168-4.7327 10.62-13.121 19.9-19.482 25.829-9.5892z" fill="#f00"/>
     <path d="m278.38 133.75c-0.0516 1.3198-0.0516 2.8664-0.30933 3.8202-0.25777 0.87127 0.30933 0.72692 0.5671 0.88674 4.1244 2.3612 10.775 4.6244 15.724 5.1864 0.0515-0.50523 0.30932-0.78363 0.51554-1.0156 0.20622-0.26293 0.36088-0.45884 0.51555-0.59288 1.1858-1.2115 2.6808-2.6808 4.4852-4.2533-0.30933 0.14435-0.67021 0.26809-1.0311 0.37119-0.25778 0.0825-0.5671 0.14951-0.82488 0.20622-0.10311 0.0103-0.15466 0.0258-0.20621 0.0309 0 5e-3 -0.0516 0-0.0516 0-0.36088 0.0567-0.67021 0.10311-1.0311 0.13404-0.36088 0.0258-0.72177 0.0412-1.1342 0.0464-0.36089 5e-3 -0.72177 0-1.0826-0.0155-0.30933-0.0155-0.67021-0.0361-1.0311-0.067-0.0516-5e-3 -0.15467-0.0206-0.20622-0.0309-0.61866-0.0567-1.1342-0.12373-1.6498-0.19075-0.15466-0.0258-0.36088-0.067-0.5671-0.11343-0.20622-0.0464-0.41244-0.1031-0.67021-0.16497-0.30933-0.0876-0.67021-0.20106-1.0826-0.31964-0.20622-0.0773-0.46399-0.14435-0.72176-0.22684-0.61866-0.20622-1.2889-0.43306-1.9591-0.67536-1.8044-0.64444-3.7635-1.3714-5.3617-1.9849-0.61865-0.21653-1.1342-0.41759-1.6498-0.59288-0.46399-0.17528-0.87643-0.32479-1.2373-0.43821zm20.828 5.6555c-1.1342 1.0105-2.1653 1.9591-2.9386 2.7736-0.30933 0.29386-0.72177 0.69599-0.72177 1.0311 0.10311-0.27839 0.41244-0.55679 0.61866-0.78878 0.82487-0.88674 1.9075-1.9178 3.0417-3.016z" fill="#f00"/>
     <path d="m303.18 108.39c-0.5671-5e-3 -1.1342 5e-3 -1.7013 0.0155-0.61865 0.0103-1.2889 0.0309-1.9075 0.0619-5.1555 0.24746-10.259 1.16-15.106 3.1294-0.67021 0.2784-1.1858 0.50008-1.5982 0.73723-0.36088 0.23716-0.67021 0.47946-0.82487 0.85581-0.0515 0.10827-0.10311 0.23715-0.10311 0.37119-1.9591 3.4026-5.1555 14.224-5.7741 16.451-0.46399 1.8766 0.10311 2.7479 0.77332 3.1861-0.0516 1.4435-0.0516 3.0314-0.25777 3.8511-0.10311 0.29386-0.10311 0.54132-0.0516 0.81972 0.0516 0.28355 0.20622 0.59803 0.41244 0.74239 0.20622 0.14435 0.36088 0.16497 0.46399 0.1959 0.10311 0.0258 0.15467 0.0619 0.10311 0.0309 2.784 1.758 6.6506 3.4902 10.414 4.7688 2.6808 0.88158 5.2586 1.5466 7.4754 1.8199 0.51554 0.18044 1.0311 0.25262 1.7528 0.25777 2.32 0.0258 5.671 0.0412 8.9705-0.6135 3.351-0.64959 6.7021-1.99 8.919-4.8461 1.1342-1.4281 2.2684-2.7582 3.351-4.011 7.5785-2.1498 12.786-1.4229 19.952-2.6757 0.61866-0.10826 1.0826-0.27839 1.4951-0.53101 0.41244-0.25777 0.72177-0.59803 0.92799-0.91767 0.36088-0.64444 0.30933-1.2425 0.30933-1.6291-0.0516-0.61866-0.15467-1.1754-0.25778-1.6755-0.25777-2.5056-1.4435-4.3306-3.0417-5.4442-1.7013-1.2115-3.7635-1.6549-5.671-1.7271-0.30933-0.0103-0.61866-5e-3 -0.92798 0-0.92799 0.0206-1.8044 0.11857-2.5262 0.25777-2.1653 0.39697-4.279 1.0156-6.3928 1.789-0.10311-0.11858-0.15467-0.24747-0.25778-0.40213-0.87642-1.557-4.0728-9.6613-5.9288-12.677v-0.0516c0.0516-0.2887-0.0516-0.59288-0.25777-0.80425-0.36088-0.36088-0.77332-0.4279-1.1858-0.48461-3.7635-0.46915-7.6301-0.82488-11.548-0.85065zm-1.7013 1.0002c4.3306-0.0361 8.6612 0.42274 12.837 1.0775 0.30932 0.0515 0.46399 0.15982 0.51554 0.17528-0.0516 0.0103-0.0516 0.0412-0.0516 0.0825-0.15467 0.19591-0.72177 0.52586-1.4435 0.80425-3.1964 1.2734-6.9083 2.3612-10.723 3.0624-0.10311 0.0412-0.15467 0.14951-0.15467 0.25777s0.10311 0.1856 0.20622 0.19075c4.0213-0.67536 7.9394-1.6962 11.29-2.8974 0.51555-0.18044 0.97954-0.36088 1.3404-0.59803 1.7529 3.0159 4.5884 10.285 5.4132 11.713 0.25777 0.3815 0.36088 0.64443 0.46399 0.84034-1.7529 0.70114-3.5057 1.5157-5.207 2.3973-2.5777 1.0723-6.135 2.9902-14.848 9.7799-0.41244 0.29902-0.82487 0.53101-1.2889 0.72692-0.15467 0.0619-0.30933 0.12373-0.464 0.17529-0.30932 0.10826-0.61865 0.20622-0.92798 0.27324-0.15466 0.0412-0.36088 0.067-0.51555 0.0979-0.0516 5e-3 -0.0516 0.0103-0.1031 0.0155-0.56711 0.0979-1.1858 0.13404-1.7529 0.14435h-0.20622c-0.10311 0-0.25777 5e-3 -0.41244 0-0.10311 0-0.20622-0.0103-0.25777-0.0155-0.10311-5e-3 -0.20622 5e-3 -0.30933 0l-0.30933-0.0155c-0.15466-0.0103-0.36088-0.0155-0.51554-0.0309-0.30933-0.0258-0.5671-0.067-0.87643-0.098l-0.15466-0.0155c-0.30933-0.0361-0.56711-0.0773-0.82488-0.11342-2.6808-0.38665-10.775-3.8408-12.94-4.4131-0.10311-0.0361-0.25777-0.0722-0.41244-0.12889-0.0515-0.0361-0.15466-0.0825-0.25777-0.12888-0.0515-0.0464-0.15466-0.0928-0.20622-0.14436-0.0516-0.0155-0.0516-0.0361-0.10311-0.0515-0.0516-0.0412-0.0516-0.098-0.10311-0.14435-0.0515-0.0155-0.0515-0.0309-0.0515-0.0464-0.0516-0.0567-0.10311-0.11342-0.15467-0.18045-0.0516-0.0567-0.1031-0.12373-0.15466-0.19075v-0.0155c0-0.067-0.0515-0.13405-0.10311-0.21138 0-0.0619 0-0.12373-0.0516-0.19075-0.10311-0.4743-0.10311-1.1033 0.10311-1.9333 0.51554-1.99 3.1964-11.249 5.0524-14.951 0.15466 0.0464 0.30933 0.0825 0.41244 0.11342 2.3715 0.5207 7.1145 0.88158 9.95 0.91767 0.15466 0 0.25777-0.10826 0.25777-0.2423 0-0.13405-0.10311-0.24231-0.25777-0.24231-2.6808-0.0876-7.3208-0.5671-9.3314-1.1136-0.20622-0.0464-0.36088-0.12373-0.41243-0.17529-0.0516-0.0258-0.0516-0.0412-0.0516-0.0515v-0.0464c0.0516-0.0722 0.20622-0.24746 0.46399-0.44853 0.30933-0.20621 0.77332-0.45368 1.392-0.74238 5.1555-2.356 10.723-3.2273 16.24-3.2686zm30.211 13.27c2.784-0.0155 6.0834 0.7166 7.6816 3.351v0.0825c0.0516 0.0825 0.10311 0.17013 0.15467 0.25778 0 0.0309 0.0516 0.067 0.0516 0.098 0.0516 0.0928 0.10311 0.17529 0.10311 0.27324 0.0516 0.0309 0.0516 0.0619 0.0516 0.098 0.0515 0.098 0.1031 0.20107 0.15466 0.30418v0.0825c0.0516 0.11342 0.10311 0.23715 0.10311 0.35057 0 0.0258 0.0516 0.0464 0.0516 0.067 0 0.13919 0.0516 0.26808 0.0516 0.41759 0.0515 0.1392 0.10311 0.2887 0.10311 0.43821v0.0309c0.0516 0.1495 0.0516 0.30932 0.0516 0.46914 0.0516 0.16498 0.0516 0.33511 0.0516 0.51555-0.20622-0.30933-0.36089-0.59803-0.5671-0.87127v-0.0155c-0.10311-0.11858-0.15467-0.21137-0.25778-0.32479-0.20622-0.30418-0.41243-0.58773-0.67021-0.85066-0.10311-0.10311-0.15466-0.21137-0.25777-0.30932-0.20622-0.20622-0.36088-0.39697-0.5671-0.57742-0.0516-0.0103-0.0516-0.0103-0.0516-0.0206-0.61865-0.54648-1.2373-0.96922-1.9075-1.2682 0-0.0103-0.0515-0.0103-0.0515-0.0206-0.20622-0.0876-0.41244-0.1856-0.61866-0.25778 0 5e-3 -0.0515 0-0.0515 0-3.4542-1.1239-7.527 0.76301-12.064 4.6915-0.0516 0.0516-0.10311 0.0928-0.15467 0.14436-0.20622 0.19591-0.46399 0.40728-0.67021 0.6135-0.20622 0.17528-0.36088 0.35057-0.5671 0.53101-0.10311 0.0876-0.20622 0.17013-0.30933 0.25777-0.41243 0.40213-0.82487 0.81972-1.2373 1.2579-0.25777 0.26808-0.51554 0.54132-0.77332 0.81971-0.41243 0.42791-0.82487 0.86612-1.2373 1.3198-0.36088 0.39697-0.72176 0.80941-1.0826 1.227-0.30932 0.34542-0.61865 0.68568-0.92798 1.0466-0.5671 0.7063-1.1858 1.4384-1.8044 2.1911-3.351 4.2017-9.7954 4.7636-14.59 4.7688-0.92798 0-1.8044-0.0103-2.5777-0.0309-0.15466-5e-3 -0.25777-0.0258-0.41244-0.0361 0 5e-3 -0.0516 0-0.0516 0-0.0516 5e-3 -0.10311 0-0.15467 0-1.9075-0.19591-0.97953-1.0723-0.41243-1.6085 1.2889-1.2889 2.9902-2.8871 5.0524-4.5935 0.0516-0.0515 0.10311-0.10311 0.15466-0.15982 6.9599-5.7638 17.425-12.832 27.84-14.564 0.72177-0.11857 1.5466-0.18559 2.3715-0.1959zm0.97954 3.351c0.15467 0 0.30933-5e-3 0.46399 0 0.15467 0.0103 0.25778 0.0206 0.41244 0.0361s0.30933 0.0361 0.46399 0.0619c0.15467 0.0309 0.25778 0.0619 0.41244 0.0979 0.61865 0.16498 1.1858 0.3712 1.6498 0.59804 0.0516 0.0155 0.10311 0.0309 0.10311 0.0464 0.15466 0.067 0.25777 0.13919 0.41243 0.21137 0.10311 0.0567 0.20622 0.11342 0.30933 0.17529 0.0516 0.0516 0.15467 0.10826 0.20622 0.15982 0.15466 0.0825 0.25777 0.17528 0.36088 0.25777 0.0516 0.0361 0.10311 0.067 0.10311 0.0979 0.15467 0.10311 0.25777 0.21653 0.41244 0.31964 0.10311 0.13404 0.25777 0.25777 0.36088 0.39182 0.0516 5e-3 0.0516 0.0206 0.0516 0.0309 0.1031 0.10826 0.20621 0.21653 0.25777 0.31964 0.0515 0.0258 0.0515 0.0567 0.10311 0.0825 0 0.0464 0.0515 0.0825 0.10311 0.12888 0.0516 0.0825 0.10311 0.16498 0.15466 0.24231 0 0.0155 0.0516 0.0309 0.0516 0.0464 0.15466 0.27324 0.30932 0.5671 0.46399 0.87127 0.36088 0.67021 0.87643 2.0158-1.1858 2.3818-6.599 1.1651-12.064 0.45884-18.869 2.5623 1.3404-1.4796 2.6293-2.8149 3.9182-3.98 0.82487-0.77332 1.6498-1.4642 2.4231-2.0776 0.36088-0.27839 0.72176-0.54132 1.0826-0.78878 0.0516-0.0206 0.0516-0.0412 0.10311-0.0619 0-0.0103 0.0516-0.0103 0.0516-0.0155 0.36088-0.23715 0.67021-0.46399 1.0311-0.66505 0.0516-0.0464 0.15466-0.098 0.20622-0.14435 0.10311-0.0464 0.20622-0.098 0.25777-0.14436 0.25778-0.12373 0.46399-0.23199 0.72177-0.3351 0.25777-0.14436 0.5671-0.26293 0.87643-0.3712 0.0515-0.0155 0.0515-0.0361 0.1031-0.0516 0.20622-0.0825 0.464-0.14435 0.67021-0.20622 0.10311-0.0206 0.15467-0.0464 0.25778-0.067 0.15466-0.0361 0.30933-0.067 0.46399-0.0979 0.10311-0.0206 0.25777-0.0464 0.36088-0.0619 0.25778-0.0258 0.46399-0.0412 0.67021-0.0516zm-54.287 7.7332c0.36088 0.11342 0.77332 0.26293 1.2373 0.43821 0.51555 0.17529 1.0311 0.37635 1.6498 0.59288 1.5982 0.6135 3.5573 1.3404 5.3617 1.9849 0.67021 0.2423 1.3404 0.46914 1.9591 0.67536 0.25777 0.0825 0.51554 0.14951 0.72176 0.22684 0.41244 0.11858 0.77332 0.232 1.0826 0.31964 0.25777 0.0619 0.46399 0.11858 0.67021 0.16497 0.20622 0.0464 0.41244 0.0876 0.5671 0.11343 0.51555 0.067 1.0311 0.13404 1.6498 0.19075 0.0515 0.0103 0.15466 0.0258 0.20622 0.0309 0.36088 0.0309 0.72176 0.0516 1.0311 0.067 0.36088 0.0155 0.72176 0.0206 1.0826 0.0155 0.41243-5e-3 0.77332-0.0206 1.1342-0.0464 0.36088-0.0309 0.67021-0.0773 1.0311-0.13404 0 0 0.0516 5e-3 0.0516 0 0.0515-5e-3 0.1031-0.0206 0.20621-0.0309 0.25778-0.0567 0.5671-0.12373 0.82488-0.20622 0.36088-0.1031 0.72176-0.22684 1.0311-0.37119-1.8044 1.5724-3.2995 3.0417-4.4852 4.2533-0.15467 0.13404-0.30933 0.32995-0.51555 0.59288-0.20622 0.23199-0.46399 0.51039-0.51554 1.0156-4.9492-0.56194-11.6-2.8252-15.724-5.1864-0.25777-0.15982-0.82487-0.0155-0.5671-0.88674 0.25778-0.95376 0.25778-2.5004 0.30933-3.8202z" clip-path="url(#be)"/>
     <path transform="matrix(.51555 0 0 .51555 -358.57 -174.36)" d="m1322.8 580.69c-17.3 5.39-33.8 17.36-44 26.19 10.5-7.77 27.5-19.11 44-26.19z" fill="#800000" filter="url(#ah)"/>
     <path transform="matrix(.51555 0 0 .51555 -358.57 -174.36)" d="m1314.4 596.72c-3.3 2.68-6.7 5.6-10.2 8.75-10.1 8.98-22.8 8.69-30 8.47-1.4-0.04-2-0.29-2.2-0.63v0.07c-1.1 1-3 2.69 1.8 2.81 8.4 0.22 23.3 0.49 30.4-8.16 3.5-4.21 6.9-8.01 10.2-11.31z" fill="#800000" filter="url(#bf)"/>
     <path transform="matrix(.51555 0 0 .51555 -358.57 -174.36)" d="m1339 576.94c-1.7 0.01-3.2 0.15-4.6 0.37-4.4 0.75-8.9 2.05-13.3 3.69 3.8-1.31 7.6-2.36 11.4-3 1.8-0.3 4-0.46 6.2-0.34 3.4 0.17 6.9 1.01 9.5 2.9 0.1 0.11 0.3 0.26 0.4 0.38 2 1.12 3.9 2.77 5.6 5-0.7-2.76-2.2-4.69-4.1-6.06-2.6-1.9-6.1-2.74-9.5-2.91-0.5-0.03-1.1-0.04-1.6-0.03z" fill="#fff" filter="url(#ai)"/>
     <path transform="matrix(.51555 0 0 .51555 -358.57 -174.36)" d="m1334.6 580.78c-1 0.3-1.9 0.66-2.9 1.1-8.7 3.97-18.4 13.48-28.7 26.24-2.2 2.73-5.2 4.63-8.4 5.97 4-1.34 7.7-3.4 10.3-6.65 10.3-12.77 20-22.27 28.7-26.25 0.4-0.15 0.7-0.28 1-0.41z" fill="#fff" filter="url(#aj)"/>
     <path transform="matrix(.51555 0 0 .51555 -358.57 -174.36)" d="m1236.1 598.58c0.8 2.57-2.2 6.68 1 8.13 3.7 1.68 7.5 3.21 11.4 4.41-3.4-1.77-6.8-3.8-9.8-6.2-3-1-0.3-4.87-2.3-6.33l-0.3-0.01z" fill="#800000" filter="url(#al)"/>
     <path transform="matrix(.51555 0 0 .51555 -358.57 -174.36)" d="m1307.9 561.25c0.1 0.58 0.4 1.31 0.5 1.84 0.1 0.25 0.2 0.58 0.2 0.82 0.3 1 0.6 2 0.8 2.78 0.3 0.97 0.6 1.79 0.8 2.28 0.3 0.96 0.6 1.64 0.7 2.12-0.7 0.45-1.5 0.9-2.2 1.38v0.03c-0.7 0.46-1.4 0.94-2.1 1.44 0 0.02-0.1 0.07-0.1 0.09-0.7 0.51-1.4 1.03-2.1 1.56v0.07c-0.7 0.49-1.3 0.98-2 1.5 0 0.05-0.1 0.1-0.2 0.15-0.4 0.3-0.9 0.6-1.4 0.97-0.1 0.05-0.2 0.1-0.2 0.16-0.6 0.39-1.1 0.82-1.7 1.31-0.3 0.19-0.5 0.45-0.7 0.66-0.6 0.44-1.1 0.86-1.7 1.4-0.7 0.68-1.5 1.4-2.4 2.25 0 0.07-0.1 0.12-0.2 0.19-0.9 0.92-1.9 1.96-3 3.13-1.1 1.12-2.2 2.36-3.4 3.74-0.1 0.06-0.1 0.08-0.2 0.13-1.2 1.42-2.6 2.99-4.1 4.72v0.06c-0.8 0.9-1.7 1.96-2.5 2.94 1.2-0.97 2.5-1.93 3.6-2.78 0.1-0.03 0.1-0.04 0.1-0.07 1.7-1.25 3.2-2.4 4.7-3.43 0-0.04 0.1-0.03 0.1-0.07 1.4-1 2.7-1.9 3.9-2.71 1.2-0.85 2.3-1.62 3.4-2.29 0-0.04 0.1-0.07 0.2-0.12 1-0.62 1.8-1.14 2.7-1.62 0.6-0.4 1.2-0.71 1.8-1.04 0.3-0.15 0.6-0.33 0.9-0.46 0.6-0.36 1.2-0.66 1.8-0.94 0.1-0.04 0.2-0.09 0.3-0.13 0.5-0.27 1.1-0.5 1.6-0.72l0.3-0.12c0.7-0.37 1.4-0.7 2.1-1.06v-0.03c0.8-0.39 1.6-0.79 2.4-1.16 0.1-0.02 0.1-0.05 0.1-0.06 0.8-0.36 1.6-0.7 2.4-1.04v-0.03c0.8-0.34 1.6-0.68 2.4-1-0.1-0.35-0.3-0.83-0.7-1.53-0.3-0.35-0.6-0.95-0.9-1.65-0.3-0.57-0.6-1.3-0.9-2.03-0.1-0.17-0.2-0.39-0.2-0.57-0.9-1.98-2-4.43-3-6.87-0.1-0.08-0.1-0.14-0.1-0.22-0.6-1.34-1.2-2.69-1.8-3.97z" fill="#800000" filter="url(#ag)"/>
     <path transform="matrix(.51555 0 0 .51555 -358.57 -174.36)" d="m1244.9 562.09c0 0.12-0.1 0.22-0.1 0.35-0.1 0.17-0.2 0.35-0.3 0.53-0.1 0.3-0.2 0.59-0.4 0.91-0.3 0.72-0.5 1.5-0.9 2.31-0.4 1.32-1 2.7-1.4 4.15-0.5 1.45-1 2.97-1.5 4.44-0.1 0.33-0.2 0.65-0.3 0.97-0.4 1.13-0.7 2.24-1.1 3.31-0.4 1.39-0.8 2.75-1.1 3.94-0.7 2.37-1.3 4.26-1.6 5.22 0 0.29-0.1 0.58-0.1 0.84-0.1 0.21-0.1 0.4-0.1 0.6v0.34c0 0.13-0.1 0.25-0.1 0.38v0.12c0 0.19 0.1 0.39 0.1 0.56 0 0.23 0 0.43 0.1 0.63v0.06c0 0.12 0 0.26 0.1 0.37 0 0.15 0.1 0.26 0.2 0.38v0.03c0 0.13 0.1 0.24 0.2 0.35v0.03c0.1 0.11 0.2 0.18 0.3 0.28 0 0.03 0 0.06 0.1 0.09 0 0.07 0.1 0.16 0.2 0.22v0.06c0.1 0.03 0.1 0.07 0.1 0.1 0.2 0.1 0.3 0.17 0.5 0.25 0.1 0.09 0.3 0.18 0.4 0.25 0.1 0.01 0.1-0.01 0.1 0 0.2 0.09 0.5 0.16 0.7 0.22 2.4 0.64 8.9 3.27 14.8 5.37-4.6-2.61-9.2-5.42-11-6.19-0.2-0.07-0.4-0.15-0.6-0.28v-0.06c-0.2-0.09-0.3-0.19-0.5-0.31-0.1-0.11-0.2-0.24-0.4-0.38 0-0.04 0-0.08-0.1-0.12v-0.07c-0.1-0.08-0.1-0.19-0.2-0.28 0-0.04 0-0.08-0.1-0.12 0-0.14-0.1-0.25-0.2-0.41v-0.03c-0.1-0.15-0.2-0.33-0.2-0.5v-0.03c-0.1-0.17-0.1-0.34-0.2-0.53 0-0.16-0.1-0.33-0.1-0.5v-0.06c0-0.28-0.1-0.6-0.1-0.91v-1.91c0-0.27 0.1-0.55 0.1-0.84 0.1-0.36 0.1-0.76 0.2-1.16 0.2-1.32 0.7-3.94 1.3-7.22 0.3-1.64 0.7-3.49 1.1-5.4 0.2-1.48 0.6-3.04 0.9-4.6 0.1-0.44 0.2-0.89 0.3-1.34l0.9-4.41z" fill="#fff" filter="url(#ag)"/>
     <path transform="matrix(.51555 0 0 .51555 -358.57 -174.36)" d="m1280.3 551.16c-10.3 0.08-20.6 1.69-30.3 6.03 10.2-2.55 20.8-3.56 31.5-3.63 6.5-0.04 13 0.28 19.4 0.82 0.6-0.24 1.3-0.48 1.9-0.72 0.4-0.17 0.8-0.33 1.1-0.5-7.7-1.22-15.6-2.07-23.6-2z" fill="#fff" filter="url(#am)"/>
     <path transform="matrix(.51555 0 0 .51555 -358.57 -174.36)" d="m1306.9 556.92c-7.1 2.21-15.2 4.05-23.5 5.28 0.1 0.21 0.3 0.37 0.6 0.38 8.2-1.15 16.2-2.8 23.3-4.75-0.1-0.31-0.3-0.62-0.4-0.91z" fill="#fff" filter="url(#ao)"/>
     <path transform="matrix(.51555 0 0 .51555 -358.57 -174.36)" d="m1245 562.14v0.09l-0.3 0.72c5.6 0.55 12.4 0.92 17 0.97 0.3 0 0.6-0.21 0.6-0.47h-0.2c-4.6-0.1-11.6-0.61-17.1-1.31z" fill="#fff" filter="url(#an)"/>
     <path transform="matrix(.51555 0 0 .51555 -358.57 -174.36)" d="m1350.8 587.09c-0.4 1.66-1.4 3.5-3.9 4.5-6.1 2.41-11.3 3.53-16.7 4.91 6.8-0.72 13.3-0.72 20.6-2 3.7-0.65 2.8-3.06 2.2-4.25-0.3-0.54-0.6-1.05-0.9-1.53v-0.1c-0.4-0.46-0.8-0.97-1.3-1.53z" fill="#800000" filter="url(#ak)"/>
    </g>
   </g>
   <path d="m293.71 222.64c9.0269 1.4737 17.233 1.6758 48.214 1.7857" fill="none" stroke="url(#bc)" stroke-width="7"/>
   <path d="m329.24 201.93s8.9286 3.2143 10 8.2143c0.48328 2.2553 3.1828 24.13 6.0009 47.465 3.4296 28.399 7.0348 58.963 7.0348 58.963" clip-path="url(#bd)" fill="none" stroke="url(#bb)" stroke-width="7"/>
   <path d="m281.92 199.43s8.9286 3.2143 10 8.2143c0.48328 2.2553 3.1828 24.13 6.0009 47.465 3.4296 28.399 7.0348 58.963 7.0348 58.963" fill="none" stroke="url(#ba)" stroke-width="7"/>
   <g transform="matrix(.49168 -.095731 -.094249 -.35301 306.11 337.47)">
    <path d="m110.29 1.9932 76.29 32.459v112.91l-76.29-56.297v-89.07z" fill="#d3bc5f" fill-rule="evenodd"/>
    <path d="m1.5117 18.829 55.887 43.794 129.18-28.171-76.29-32.459-108.78 16.836z" fill="url(#ar)" fill-rule="evenodd"/>
    <path d="m57.399 62.623v133.77l129.18-49.03v-112.91l-129.18 28.173z" fill="url(#aq)" fill-rule="evenodd"/>
    <path d="m0.6238 17.941 55.887 43.794v133.78l-55.887-76.02-2e-4 -101.56z" fill="url(#ap)" fill-rule="evenodd"/>
    <path d="m60.085 10.357 68.255 36.476" fill="none" stroke="#784421" stroke-width="2.5111px"/>
    <path d="m1.5695 18.833 55.872 43.631 129.64-27.936" fill="none" stroke="#c7a768" stroke-width="2.5111px"/>
    <path d="m140.9 44.454 0.19 10.79-3.84-6.513-3.06 7.534-2.91-6.278-3.68 6.513-1.73-3.767-3.92 6.592-1.57-5.022-4.63 7.533-0.36-11.849 25.51-5.533z" fill="#34dbdb" fill-opacity=".36486" fill-rule="evenodd" opacity=".42169" stroke="#fff" stroke-width=".50222"/>
    <path d="m57.128 62.15v134.34" fill="none" stroke="#c7a768" stroke-width="2.5111px"/>
    <path d="m115.35 49.908-66.226-38.451 21.03-3.139 70.936 36.097-25.74 5.493z" fill="#a9c7c9" fill-rule="evenodd" opacity=".5" stroke="#fff" stroke-width=".50222"/>
    <path d="m1.2556 18.833 0.3139 101.39 54.93 75.65 130.26-48.66-0.31-113.31-76.59-32.644-108.6 17.577z" fill="none" stroke="#6c5434" stroke-width="2.5111px"/>
   </g>
   <path d="m304.58 331.9 14.647-12.627 58.589-2.0203-17.678 10.102z" fill="#7c7c7c" fill-rule="evenodd"/>
   <g transform="matrix(-.29831 0 0 .29831 562.38 285.27)">
    <path d="m857.39 182.9s12.627 6.0609 23.234 5.0508c10.607-1.0102 19.698-3.5355 21.213-15.152 1.5152-11.617 6.0609-33.335 3.5355-44.447s-1.5152-37.376-16.668-36.871c-15.152 0.50507-27.779 6.0609-34.345 23.739-6.566 17.678-13.132 17.678-10.102 34.85 3.0305 17.173 13.132 32.83 13.132 32.83z" fill-rule="evenodd" stroke="#000" stroke-width="1px"/>
    <path d="m878.28 119.51c3.388-11.298 9.036-10.166 12.99 0 3.39 19.77 4.521 50.272-6.213 53.66 0 0-9.602-5.084-9.036-14.686 3.389 5.647 7.906 15.25 10.167 2.823l-10.167-6.778 4.519-5.647 7.908 0.564s2.257-9.602 1.128-17.51c-1.128-7.908-4.519 2.824-4.519 2.824v9.602l-3.39-1.129s3.842-1.996-5.646-6.214c-5.084-2.259 6.212-2.259 6.212-2.259s0.565-2.26-6.212-2.824l1.693-3.955 10.733-6.777c0 0.03-1.69-12.4-10.16-1.67z" fill="#807b88"/>
   </g>
  </g>
 </g>
</svg>
